<svg width="24" height="24" viewBox="0 0 24 24" fill="none" xmlns="http://www.w3.org/2000/svg">
<mask id="mask0_1_991" style="mask-type:alpha" maskUnits="userSpaceOnUse" x="0" y="0" width="24" height="24">
<rect width="24" height="24" fill="#D9D9D9"/>
</mask>
<g mask="url(#mask0_1_991)">
<path d="M12.9673 20C12.4166 20 11.9451 19.8042 11.5529 19.4125C11.1607 19.0208 10.9646 18.55 10.9646 18C10.9646 17.45 11.1607 16.9792 11.5529 16.5875C11.9451 16.1958 12.4166 16 12.9673 16C13.5181 16 13.9895 16.1958 14.3817 16.5875C14.7739 16.9792 14.97 17.45 14.97 18C14.97 18.55 14.7739 19.0208 14.3817 19.4125C13.9895 19.8042 13.5181 20 12.9673 20ZM12.9673 14C12.4166 14 11.9451 13.8042 11.5529 13.4125C11.1607 13.0208 10.9646 12.55 10.9646 12C10.9646 11.45 11.1607 10.9792 11.5529 10.5875C11.9451 10.1958 12.4166 10 12.9673 10C13.5181 10 13.9895 10.1958 14.3817 10.5875C14.7739 10.9792 14.97 11.45 14.97 12C14.97 12.55 14.7739 13.0208 14.3817 13.4125C13.9895 13.8042 13.5181 14 12.9673 14ZM12.9673 8C12.4166 8 11.9451 7.80417 11.5529 7.4125C11.1607 7.02083 10.9646 6.55 10.9646 6C10.9646 5.45 11.1607 4.97917 11.5529 4.5875C11.9451 4.19583 12.4166 4 12.9673 4C13.5181 4 13.9895 4.19583 14.3817 4.5875C14.7739 4.97917 14.97 5.45 14.97 6C14.97 6.55 14.7739 7.02083 14.3817 7.4125C13.9895 7.80417 13.5181 8 12.9673 8Z" fill="white"/>
</g>
</svg>
