<svg width="12" height="12" viewBox="0 0 12 12" fill="none" xmlns="http://www.w3.org/2000/svg">
<path d="M3.75 11.25C2.08594 11.25 0.75 9.91406 0.75 8.25C0.75 7.35938 1.125 6.5625 1.75781 6C1.125 5.46094 0.75 4.66406 0.75 3.75C0.75 2.10938 2.08594 0.75 3.75 0.75C4.64062 0.75 5.4375 1.14844 6 1.78125C6.53906 1.14844 7.33594 0.75 8.25 0.75C9.89062 0.75 11.25 2.10937 11.25 3.75C11.25 4.66406 10.8516 5.46094 10.2188 6C10.8516 6.5625 11.25 7.35937 11.25 8.25C11.25 9.91406 9.89063 11.25 8.25 11.25C7.33594 11.25 6.53906 10.875 6 10.2422C5.4375 10.875 4.64063 11.25 3.75 11.25ZM6 4.125C5.32031 4.125 4.71094 4.5 4.35938 5.0625C4.03125 5.64844 4.03125 6.375 4.35938 6.9375C4.71094 7.52344 5.32031 7.875 6 7.875C6.65625 7.875 7.26563 7.52344 7.61719 6.9375C7.94531 6.375 7.94531 5.64844 7.61719 5.0625C7.26563 4.5 6.65625 4.125 6 4.125Z" fill="white"/>
</svg>
