<svg width="16" height="16" viewBox="0 0 16 16" fill="none" xmlns="http://www.w3.org/2000/svg">
<path d="M5 15C2.78125 15 1 13.2188 1 11C1 9.8125 1.5 8.75 2.34375 8C1.5 7.28125 1 6.21875 1 5C1 2.8125 2.78125 1 5 1C6.1875 1 7.25 1.53125 8 2.375C8.71875 1.53125 9.78125 1 11 1C13.1875 1 15 2.8125 15 5C15 6.21875 14.4688 7.28125 13.625 8C14.4688 8.75 15 9.8125 15 11C15 13.2187 13.1875 15 11 15C9.78125 15 8.71875 14.5 8 13.6562C7.25 14.5 6.1875 15 5 15ZM8 5.5C7.09375 5.5 6.28125 6 5.8125 6.75C5.375 7.53125 5.375 8.5 5.8125 9.25C6.28125 10.0312 7.09375 10.5 8 10.5C8.875 10.5 9.6875 10.0312 10.1563 9.25C10.5938 8.5 10.5938 7.53125 10.1563 6.75C9.6875 6 8.875 5.5 8 5.5Z" fill="#32293F"/>
</svg>
