<svg width="12" height="17" viewBox="0 0 12 17" fill="none" xmlns="http://www.w3.org/2000/svg">
<path d="M10 8.3125C10.3438 7.5 10.5 6.90625 10.5 6.5C10.5 4.03125 8.46875 2 6 2C3.5 2 1.5 4.03125 1.5 6.5C1.5 6.90625 1.625 7.5 1.96875 8.3125C2.28125 9.0625 2.75 9.9375 3.28125 10.8125C4.1875 12.25 5.21875 13.625 6 14.625C6.75 13.625 7.78125 12.25 8.6875 10.8125C9.21875 9.9375 9.6875 9.0625 10 8.3125ZM6.71875 16.125C6.34375 16.5938 5.625 16.5938 5.25 16.125C3.65625 14.0938 0 9.25 0 6.5C0 3.1875 2.6875 0.5 6 0.5C9.3125 0.5 12 3.1875 12 6.5C12 9.25 8.34375 14.0937 6.71875 16.125Z" fill="#6BC79D"/>
</svg>
