<svg width="14" height="12" viewBox="0 0 14 12" fill="none" xmlns="http://www.w3.org/2000/svg">
<path d="M7 12C4.84375 12 2.875 10.875 1.79688 9C0.71875 7.14844 0.71875 4.875 1.79688 3C2.875 1.14844 4.84375 0 7 0C9.13281 0 11.1016 1.14844 12.1797 3C13.2578 4.875 13.2578 7.14844 12.1797 9C11.1016 10.875 9.13281 12 7 12ZM4.84375 7.64062C4.70313 7.47656 4.46875 7.47656 4.30469 7.59375C4.14063 7.73437 4.14063 7.96875 4.25781 8.13281C4.79688 8.74219 5.6875 9.375 7 9.375C8.28906 9.375 9.17969 8.74219 9.71875 8.13281C9.83594 7.96875 9.83594 7.73437 9.67188 7.59375C9.50781 7.47656 9.27344 7.47656 9.13281 7.64062C8.73438 8.13281 8.00781 8.625 7 8.625C5.96875 8.625 5.26563 8.13281 4.84375 7.64062ZM4.375 4.875C4.375 5.29687 4.70313 5.625 5.125 5.625C5.54688 5.625 5.875 5.29687 5.875 4.875C5.875 4.47656 5.54688 4.125 5.125 4.125C4.70312 4.125 4.375 4.47656 4.375 4.875ZM8.875 4.125C8.45312 4.125 8.125 4.47656 8.125 4.875C8.125 5.29687 8.45312 5.625 8.875 5.625C9.29688 5.625 9.625 5.29687 9.625 4.875C9.625 4.47656 9.29688 4.125 8.875 4.125Z" fill="white"/>
</svg>
