<svg width="18" height="16" viewBox="0 0 18 16" fill="none" xmlns="http://www.w3.org/2000/svg">
<path d="M9 16C6.125 16 3.5 14.5 2.0625 12C0.625 9.53125 0.625 6.5 2.0625 4C3.5 1.53125 6.125 0 9 0C11.8438 0 14.4688 1.53125 15.9062 4C17.3438 6.5 17.3438 9.53125 15.9063 12C14.4688 14.5 11.8438 16 9 16ZM6.125 10.1875C5.9375 9.96875 5.625 9.96875 5.40625 10.125C5.1875 10.3125 5.1875 10.625 5.34375 10.8438C6.0625 11.6562 7.25 12.5 9 12.5C10.7188 12.5 11.9063 11.6562 12.625 10.8437C12.7813 10.625 12.7813 10.3125 12.5625 10.125C12.3438 9.96875 12.0313 9.96875 11.8438 10.1875C11.3125 10.8437 10.3438 11.5 9 11.5C7.625 11.5 6.6875 10.8437 6.125 10.1875ZM5.5 6.5C5.5 7.0625 5.9375 7.5 6.5 7.5C7.0625 7.5 7.5 7.0625 7.5 6.5C7.5 5.96875 7.0625 5.5 6.5 5.5C5.9375 5.5 5.5 5.96875 5.5 6.5ZM11.5 5.5C10.9375 5.5 10.5 5.96875 10.5 6.5C10.5 7.0625 10.9375 7.5 11.5 7.5C12.0625 7.5 12.5 7.0625 12.5 6.5C12.5 5.96875 12.0625 5.5 11.5 5.5Z" fill="#32293F"/>
</svg>
