<svg width="26" height="25" viewBox="0 0 26 25" fill="none" xmlns="http://www.w3.org/2000/svg">
<path d="M12.9531 0C13.4219 0 13.7969 0.28125 13.9844 0.65625L17.2188 7.26562L24.3906 8.34375C24.8125 8.39062 25.1406 8.67187 25.2812 9.09375C25.4219 9.51562 25.3281 9.9375 25 10.2656L19.7969 15.4219L21.0156 22.6875C21.1094 23.1094 20.9219 23.5781 20.5938 23.8125C20.2188 24.0469 19.75 24.0937 19.375 23.9062L12.9531 20.4375L6.57813 23.9062C6.15625 24.0938 5.73438 24.0469 5.35938 23.8125C5.03125 23.5312 4.84375 23.1094 4.9375 22.6875L6.15625 15.4219L0.953125 10.2656C0.625 9.9375 0.53125 9.51562 0.671875 9.09375C0.8125 8.71875 1.14063 8.39062 1.5625 8.34375L8.73438 7.26562L11.9688 0.65625C12.1562 0.28125 12.5312 0 12.9531 0ZM12.9531 3.70312L10.5156 8.8125C10.3281 9.14062 10.0469 9.375 9.67188 9.42187L4.14063 10.2188L8.125 14.2031C8.40625 14.4844 8.54688 14.8594 8.45313 15.1875L7.51563 20.8125L12.4375 18.1875C12.7656 18 13.1875 18 13.5156 18.1875L18.4375 20.8125L17.5 15.2344C17.4063 14.8594 17.5469 14.4844 17.8281 14.25L21.8125 10.2187L16.2812 9.42187C15.9062 9.375 15.625 9.14062 15.4375 8.8125L12.9531 3.70312Z" fill="#22404F"/>
</svg>
